<?xml version="1.0" encoding="UTF-8"?>
<!-- Generator: Adobe Illustrator 21.1.0, SVG Export Plug-In . SVG Version: 6.00 Build 0)  -->
<svg version="1.1" id="Layer_1" xmlns="http://www.w3.org/2000/svg" xmlns:xlink="http://www.w3.org/1999/xlink" x="0px" y="0px" viewBox="0 0 468.4 179.8" style="enable-background:new 0 0 468.4 179.8;" xml:space="preserve">
<style type="text/css">
	.st0{fill:#FFFFFF;}
</style>
<title>red-font axian</title>
<polygon class="st0" points="19,179.3 0,179.3 0,152.1 4.3,152.1 4.3,175.8 19,175.8 "/>
<polygon class="st0" points="28.7,163.4 42.2,163.4 42.2,167 28.7,167 28.7,175.8 44.5,175.8 44.5,179.3 24.5,179.3 24.5,152.1   44.5,152.1 44.5,155.6 28.7,155.6 "/>
<polygon class="st0" points="62.2,155.6 62.2,179.3 58,179.3 58,155.6 49.2,155.6 49.2,152.1 71,152.1 71,155.6 "/>
<polygon class="st0" points="76.6,150.1 74.9,158.9 77,159.3 80.5,150.1 "/>
<path class="st0" d="M103.6,156.7c-2.5-1-5.3-1.5-8-1.5c-4.5,0-6.8,1.3-6.8,3.9c0,6.6,16.6,2.4,16.6,12.6c0,5.3-4.4,8.2-12.1,8.2  c-3.1,0.1-6.2-0.6-9.1-1.8l0.7-3.4c2.6,1,5.3,1.5,8.1,1.5c5.2,0,7.9-1.5,7.9-4.3c0-6.7-16.6-2.4-16.6-12.6c0-5.1,4-7.8,11.2-7.8  c3,0,6,0.6,8.8,1.8L103.6,156.7z"/>
<path class="st0" d="M144.6,177.6c-3,1.5-6.3,2.2-9.6,2.2c-9.5,0-12.6-5.9-12.6-14s3.1-14.3,12.5-14.3c3,0,6.1,0.6,8.9,1.8l-0.7,3.4  c-2.4-1-4.9-1.5-7.5-1.5c-6.1,0-8.8,3.7-8.8,10.7s2.8,10.3,8.8,10.3c1.6,0,3.2-0.3,4.8-0.8v-9.2h4.2V177.6z"/>
<path class="st0" d="M162.3,165.9c4.2,0,6.2-1.7,6.2-5.2s-2-5.1-6.2-5.1H156v10.3H162.3z M156,169.4v9.9h-4.3v-27.2h11.2  c6.6,0,10,3,10,8.7c0,4.5-2.2,7.3-6.3,8.3l6.8,10.3h-5l-6.4-9.9H156z"/>
<path class="st0" d="M190.2,176.2c5.2,0,7.5-3.2,7.5-10.9c0-7-2.1-10-7.5-10s-7.6,3.1-7.6,10.7C182.6,173.1,184.7,176.1,190.2,176.2   M202.2,165.5c0,6.8-1.9,14.3-12.2,14.3s-11.9-7.2-11.9-14s2-14.3,12.3-14.3S202.2,158.7,202.2,165.5"/>
<polygon class="st0" points="233.9,179.3 228.4,179.3 222.9,156.4 217.3,179.3 211.8,179.3 205.9,152.1 210.3,152.1 214.9,174.8   220.1,152.1 225.6,152.1 230.8,174.8 235.4,152.1 239.8,152.1 "/>
<polygon class="st0" points="268.5,155.6 268.5,179.3 264.2,179.3 264.2,155.6 255.5,155.6 255.5,152.1 277.3,152.1 277.3,155.6 "/>
<path class="st0" d="M292.9,176.2c5.2,0,7.5-3.2,7.5-10.9c0-7-2.1-10-7.5-10c-5.3,0-7.6,3.1-7.6,10.8  C285.2,173.1,287.3,176.1,292.9,176.2 M304.9,165.5c0,6.8-1.9,14.3-12.2,14.3s-11.9-7.2-11.9-14s2-14.3,12.3-14.3  S304.9,158.7,304.9,165.5"/>
<path class="st0" d="M332.2,177.6c-3,1.5-6.3,2.2-9.6,2.2c-9.5,0-12.6-5.9-12.6-14s3.1-14.3,12.5-14.3c3,0,6.1,0.6,8.9,1.8l-0.7,3.4  c-2.4-1-4.9-1.5-7.5-1.5c-6.1,0-8.8,3.7-8.8,10.7s2.7,10.3,8.7,10.3c1.6,0,3.2-0.3,4.8-0.8v-9.2h4.3L332.2,177.6z"/>
<polygon class="st0" points="343.6,163.4 357,163.4 357,167 343.6,167 343.6,175.8 359.3,175.8 359.3,179.3 339.3,179.3   339.3,152.1 359.3,152.1 359.3,155.6 343.6,155.6 "/>
<polygon class="st0" points="377.1,155.6 377.1,179.3 372.8,179.3 372.8,155.6 364.1,155.6 364.1,152.1 385.8,152.1 385.8,155.6 "/>
<polygon class="st0" points="413,179.3 408.7,179.3 408.7,167.1 395.6,167.1 395.6,179.3 391.3,179.3 391.3,152.1 395.6,152.1   395.6,163.5 408.7,163.5 408.7,152.1 413,152.1 "/>
<polygon class="st0" points="425,163.4 438.4,163.4 438.4,167 425,167 425,175.8 440.7,175.8 440.7,179.3 420.7,179.3 420.7,152.1   440.7,152.1 440.7,155.6 425,155.6 "/>
<path class="st0" d="M457.3,165.9c4.2,0,6.2-1.7,6.2-5.2s-2-5.1-6.2-5.1H451v10.3H457.3z M450.9,169.4v9.9h-4.3v-27.2h11.2  c6.6,0,10,3,10,8.7c0,4.5-2.2,7.3-6.3,8.3l6.8,10.3h-5l-6.4-9.9H450.9z"/>
<path class="st0" d="M10.2,94.3l-8.4,25h27.4c0,0,4.5-13.8,9.8-30.5L10.2,94.3z"/>
<path class="st0" d="M46.1,66.2c5.3-16.8,9.9-31.7,10.4-34.4h0.4c0.5,2.7,4.7,16,9.7,31.5l27.6-3.9L73.3,0H42.1L18.4,70.2L46.1,66.2  z"/>
<path class="st0" d="M72.8,82.3c6,18.2,11.5,34.8,12.2,36.8l19.2-31.3L100.4,77L72.8,82.3z"/>
<polygon class="st0" points="175.4,47.9 203.5,0 172.2,0 150.8,38.7 129.1,0 97.3,0 129.9,54.3 "/>
<polygon class="st0" points="123.9,72.5 95.1,119.3 127.7,119.3 150.3,79 172.9,119.3 207.5,119.3 171.9,63.2 "/>
<polygon class="st0" points="240.5,38.6 240.5,0 212.9,0 212.9,42.5 "/>
<polygon class="st0" points="212.9,55.4 212.9,119.3 240.5,119.3 240.5,50.1 "/>
<path class="st0" d="M270.2,44.4l-25.3,74.9h27.4c0,0,19-58.7,25.4-80.2L270.2,44.4z"/>
<polygon class="st0" points="325.8,26.5 316.5,0 285.2,0 273.8,33.9 "/>
<path class="st0" d="M301.8,38.3c6.2,20.8,26.3,81,26.3,81h30.2l-30.2-86L301.8,38.3z"/>
<polygon class="st0" points="464.2,6.9 464.2,0 437.7,0 437.7,10.6 "/>
<path class="st0" d="M437.7,12.3v27c0,11.3,0.4,27,1.3,37.3c-4.3-9.2-9.2-19.6-14.5-29.3l-16.2-29.3l-45.3,8.7v92.7h26.5V73.9  c0-11.3-0.4-23.3-0.9-32.2c3.7,8.9,7.8,17.7,12.4,26.2l28.1,51.4h35.2V7.2L437.7,12.3z"/>
<polygon class="st0" points="406.6,15 398.3,0 362.9,0 362.9,21.2 "/>
</svg>