<?xml version="1.0" encoding="utf-8"?>
<!-- Generator: Adobe Illustrator 16.0.0, SVG Export Plug-In . SVG Version: 6.00 Build 0)  -->
<!DOCTYPE svg PUBLIC "-//W3C//DTD SVG 1.1//EN" "http://www.w3.org/Graphics/SVG/1.1/DTD/svg11.dtd">
<svg version="1.1" id="Layer_1" xmlns="http://www.w3.org/2000/svg" xmlns:xlink="http://www.w3.org/1999/xlink" x="0px" y="0px"
	 width="1093.022px" height="339.588px" viewBox="0 0 1093.022 339.588" enable-background="new 0 0 1093.022 339.588"
	 xml:space="preserve">
<g>
	<path fill="#FFFFFF" d="M1014.195,213.669c-3.778,7.631-6.667,16.204-14.062,19.981c-2.86,1.474-6.656,1.699-10.887,2.323
		c-5.155,0.755-11.709,1.586-17.525,2.312c-1.983,0.246-4.4,0.917-5.798,0.501c-4.693-1.416-1.804-8.13-0.473-11.897
		c14.862-42.021,33.258-78.998,55.693-113.199c1.605-2.475,3.295-5.798,5.108-7.12c6.166-4.438,17.214-1.794,25.457-0.982
		c-1.104-1.851-2.974-3.116-4.484-4.627c-11.114-11.133-23.381-21.085-35.863-30.746c-28.479-22.059-60.018-41.756-96.656-55.343
		C896.188,7.988,876.538,1.501,853.555,0c-3.287,0-6.61,0-9.905,0c-28.045,1.567-44.854,16.147-55.533,36.015
		c-10.737,19.98-15.571,46.363-15.854,75.692c-0.321,29.953,4.004,57.016,10.406,81.132c6.459,24.277,15.278,46.25,25.948,65.608
		c2.021-29.036,4.816-59.234,8.423-87.741c0.548-4.344,1.587-7.952,3.967-9.765c1.869-1.397,4.551-2.53,7.45-3.966
		c1.652-0.821,6.222-3.965,8.072-2.964c1.474,0.774,0.464,4.977,0.171,6.77c-4.968,30.453-8.499,61.557-11.237,94.181
		c-0.424,5.271-0.424,10.558-2.134,14.052c-1.209,2.483-3.069,3.729-5.458,4.966c0,0.114,0,0.208,0,0.321
		c9.877,15.033,20.765,29.575,33.862,41.473c13.002,11.823,28.29,22.493,51.566,23.814c0.396,0,0.765,0,1.161,0
		c13.663-0.265,24.429-5.23,34.041-10.576c28.593-15.938,53.04-36.693,76.354-57.676c15.43-13.909,30.755-28.885,44.636-44.786
		c6.921-7.951,13.551-16.118,19.632-24.947c6.101-8.857,12.124-18.659,13.899-30.896c0-1.88,0-3.749,0-5.629
		c-2.644-17.355-12.673-27.327-21.34-38.677C1049.68,151.99,1029.888,181.904,1014.195,213.669z M847.106,243.414
		c-1.918,1.549-5.128,2.578-7.583,3.796c-1.322,0.652-2.578,1.322-3.806,1.992c-1.189,0.624-2.483,1.615-3.777,1.492
		c-2.257-2.172-1.643-5.675-1.35-8.441c4.259-42.105,9.772-84.125,18.517-122.444c1.076-4.854,1.719-9.141,5.278-11.086
		c1.993-1.076,5.865-1.577,8.433-2.152c3.248-0.699,6.704-1.719,9.226-1.804c5.326-0.179,2.852,5.506,1.842,9.245
		c-9.595,35.646-16.657,73.086-21.974,113.37C851.071,233.584,850.619,240.581,847.106,243.414z M875.207,263.404
		c-0.812,3.702-2.53,8.471-4.447,9.915c-1.048,0.774-2.823,1.096-4.297,1.652c-3.984,1.501-8.563,3.739-12.559,4.806
		c-2.53-3.305-1.737-8.309-1.341-12.568c5.458-56.685,15.015-110.177,29.414-158.646c2.068-6.883,3.701-17.232,9.755-19.168
		c2.322-0.727,5.646-0.463,8.763-0.67c3.343-0.208,6.997-0.18,9.575-0.481c2.86-0.35,5.316-0.029,6.288,1.331
		c2.125,2.965-1.181,8.026-2.322,10.897c-17.572,44.871-28.971,95.692-36.997,150.375
		C876.482,254.604,876.124,259.27,875.207,263.404z M907.284,248.201c-2.795,1.332-7.044,1.729-10.755,2.645
		c-1.521,0.377-3.371,0.812-5.307,1.322c-1.795,0.472-4.192,1.369-5.439,0.82c-1.822-0.802-1.757-4.692-1.161-8.423
		c6.789-42.416,15.703-81.906,28.592-118.477c0.756-2.144,1.709-5.656,3.145-7.28c2.295-2.598,5.411-2.625,9.244-2.796
		c3.069-0.16,9.217,0,14.24,0c4.306,0,10.462-0.509,11.219,2.796c0.472,2.152-1.7,5.392-2.635,7.591
		c-14.382,33.597-25.506,68.979-34.212,107.912C912.949,239.892,911.542,246.172,907.284,248.201z M958.671,220.601
		c-3.674,5.438-11.275,5.07-20.01,6.118c-2.097,0.246-4.569,0.511-7.109,0.822c-2.909,0.387-5.742,1.029-7.271-0.321
		c-2.455-2.199,0.34-9.546,1.321-13.22c7.725-28.659,16.809-55.777,28.272-81.312c2.21-4.9,2.927-7.478,9.254-8.102
		c4.456-0.435,12.974,0.358,19.669,0.661c4.013,0.208,15.911-0.226,16.854,3.475c0.293,1.265-1.453,3.569-2.492,5.458
		c-13.938,25.051-25.543,51.481-35.864,79.819C960.427,216.39,959.813,218.9,958.671,220.601z"/>
	<path fill="#FFFFFF" d="M3.559,113.548c-1.906,0-3.559,1.652-3.559,3.56v89.705c0,1.928,1.653,3.551,3.559,3.551
		c1.917,0,3.579-1.623,3.579-3.551v-89.705C7.138,115.201,5.477,113.548,3.559,113.548z"/>
	<path fill="#FFFFFF" d="M112.67,113.548c-1.898,0-3.39,1.511-3.39,3.428v80.679l-64.55-81.916c-0.954-1.228-2.049-2.049-3.56-2.049
		h-1.077c-1.926,0-3.569,1.643-3.569,3.551v89.705c0,1.926,1.492,3.418,3.428,3.418c1.908,0,3.409-1.492,3.409-3.418v-82.453
		l65.769,83.416c1.104,1.36,2.182,2.323,3.541,2.323h0.585c1.625,0,2.861-1.36,2.861-3.003v-90.253
		C116.116,115.06,114.634,113.548,112.67,113.548z"/>
	<path fill="#FFFFFF" d="M222.498,160.186H189.42c-1.785,0-3.295,1.492-3.295,3.286c0,1.775,1.51,3.277,3.295,3.277h29.773v27.488
		c-6.95,5.883-18.31,10.934-30.462,10.934c-25.571,0-41.029-18.461-41.029-43.209v-0.283c0-23.097,16.261-42.785,39.509-42.785
		c13.267,0,21.34,3.957,28.715,9.707c0.831,0.67,1.643,0.953,2.191,0.953c1.926,0,3.559-1.643,3.559-3.55
		c0-1.237-0.538-2.19-1.369-2.88c-8.885-6.685-18.309-10.661-32.672-10.661c-28.583,0-47.317,23.645-47.317,49.499v0.264
		c0,26.949,17.903,49.254,48.12,49.254c14.221,0,26.128-5.346,35.156-12.314c1.51-1.246,2.465-2.738,2.465-4.117v-31.311
		C226.059,161.829,224.406,160.186,222.498,160.186z"/>
	<path fill="#FFFFFF" d="M317.812,203.255h-58.951v-38.423h52.115c1.756,0,3.286-1.491,3.286-3.286c0-1.775-1.53-3.277-3.286-3.277
		h-52.115v-37.61h58.253c1.774,0,3.276-1.502,3.276-3.268c0-1.793-1.501-3.305-3.276-3.305h-61.794
		c-1.917,0-3.551,1.652-3.551,3.569v88.621c0,1.916,1.634,3.541,3.551,3.541h62.492c1.775,0,3.277-1.492,3.277-3.277
		C321.089,204.765,319.588,203.255,317.812,203.255z"/>
	<path fill="#FFFFFF" d="M377.16,114.087h-27.223c-4.797,0-8.46,3.701-8.46,8.498v78.771c0,4.777,3.664,8.461,8.46,8.461h27.223
		c30.084,0,50.849-20.916,50.849-47.856v-0.283C428.009,134.747,407.245,114.087,377.16,114.087z M410.398,162.226
		c0,18.744-13.125,32.285-33.238,32.285h-18.875v-65.089h18.875c20.113,0,33.238,13.806,33.238,32.54V162.226z"/>
	<path fill="#FFFFFF" d="M494.609,119.563c-1.879-4.23-5.184-6.827-9.962-6.827h-0.831c-4.778,0-8.197,2.596-10.123,6.827
		l-35.533,79.31c-0.708,1.378-1.133,2.597-1.133,3.843c0,4.373,3.447,7.801,7.809,7.801c3.56,0,6.421-1.928,7.8-5.346l8.073-18.461
		h46.496l7.791,17.914c1.502,3.568,4.24,5.893,8.215,5.893c4.523,0,7.932-3.57,7.932-8.064c0-1.096-0.293-2.332-0.973-3.579
		L494.609,119.563z M467.14,171.81l16.808-38.695l16.827,38.695H467.14z"/>
	<path fill="#FFFFFF" d="M602.246,114.087h-63.577c-4.409,0-7.819,3.569-7.819,7.818c0,4.23,3.41,7.781,7.819,7.781h23.239v72.482
		c0,4.645,3.843,8.348,8.479,8.348c4.646,0,8.471-3.703,8.471-8.348v-72.482h23.389c4.25,0,7.668-3.551,7.668-7.781
		C609.914,117.656,606.496,114.087,602.246,114.087z"/>
	<path fill="#FFFFFF" d="M667.07,119.563c-1.926-4.23-5.202-6.827-9.999-6.827h-0.812c-4.778,0-8.197,2.596-10.133,6.827
		l-35.552,79.31c-0.661,1.378-1.077,2.597-1.077,3.843c0,4.373,3.42,7.801,7.781,7.801c3.57,0,6.422-1.928,7.791-5.346l8.072-18.461
		h46.496l7.801,17.914c1.491,3.568,4.248,5.893,8.215,5.893c4.494,0,7.913-3.57,7.913-8.064c0-1.096-0.265-2.332-0.954-3.579
		L667.07,119.563z M639.574,171.81l16.816-38.695l16.809,38.695H639.574z"/>
</g>
</svg>
